<svg width="179" height="28" viewBox="0 0 179 28" fill="none" xmlns="http://www.w3.org/2000/svg">
<rect x="28.1077" y="12.0684" width="3.86207" height="28.1077" transform="rotate(90 28.1077 12.0684)" fill="#D8F34E"/>
<rect x="15.9927" y="28" width="3.87692" height="28" transform="rotate(-180 15.9927 28)" fill="#D8F34E"/>
<rect width="3.8695" height="28.0539" transform="matrix(-0.708462 0.705749 -0.708462 -0.705749 25.3635 22.5342)" fill="#D8F34E"/>
<rect width="3.8695" height="28.0539" transform="matrix(-0.708462 -0.705749 0.708462 -0.705749 5.48657 25.2646)" fill="#D8F34E"/>
<path d="M162.153 24.9998V1.19983H166.063V10.4138H166.641C166.822 10.0285 167.117 9.64316 167.525 9.25783C167.933 8.8725 168.465 8.55516 169.123 8.30583C169.803 8.0565 170.653 7.93183 171.673 7.93183C172.965 7.93183 174.109 8.2265 175.107 8.81583C176.104 9.3825 176.875 10.1872 177.419 11.2298C177.985 12.2725 178.269 13.5078 178.269 14.9358V24.9998H174.359V15.2418C174.359 13.8818 174.019 12.8732 173.339 12.2158C172.681 11.5358 171.741 11.1958 170.517 11.1958C169.134 11.1958 168.046 11.6605 167.253 12.5898C166.459 13.4965 166.063 14.7998 166.063 16.4998V24.9998H162.153Z" fill="white"/>
<path d="M149.985 25.4759C148.353 25.4759 146.88 25.1359 145.565 24.4559C144.251 23.7759 143.208 22.7899 142.437 21.4979C141.689 20.2059 141.315 18.6532 141.315 16.8399V16.3639C141.315 14.5506 141.689 12.9979 142.437 11.7059C143.208 10.4139 144.251 9.42791 145.565 8.74791C146.88 8.06791 148.353 7.72791 149.985 7.72791C151.595 7.72791 152.966 8.01124 154.099 8.57791C155.255 9.14457 156.185 9.92657 156.887 10.9239C157.59 11.8986 158.043 12.9979 158.247 14.2219L154.473 15.0039C154.383 14.3012 154.167 13.6666 153.827 13.0999C153.487 12.5106 153 12.0459 152.365 11.7059C151.753 11.3659 150.994 11.1959 150.087 11.1959C149.158 11.1959 148.319 11.3999 147.571 11.8079C146.846 12.1932 146.268 12.7826 145.837 13.5759C145.429 14.3692 145.225 15.3212 145.225 16.4319V16.7719C145.225 17.8826 145.429 18.8346 145.837 19.6279C146.268 20.3986 146.846 20.9879 147.571 21.3959C148.319 21.8039 149.158 22.0079 150.087 22.0079C151.47 22.0079 152.513 21.6566 153.215 20.9539C153.941 20.2286 154.394 19.2992 154.575 18.1659L158.349 19.0499C158.077 20.2286 157.59 21.3052 156.887 22.2799C156.185 23.2546 155.255 24.0366 154.099 24.6259C152.966 25.1926 151.595 25.4759 149.985 25.4759Z" fill="white"/>
<path d="M130.059 25.4759C128.382 25.4759 126.897 25.1246 125.605 24.4219C124.336 23.6966 123.339 22.6879 122.613 21.3959C121.911 20.0812 121.559 18.5512 121.559 16.8059V16.3979C121.559 14.6299 121.911 13.0999 122.613 11.8079C123.316 10.5159 124.302 9.51857 125.571 8.81591C126.841 8.09057 128.303 7.72791 129.957 7.72791C131.589 7.72791 133.017 8.09057 134.241 8.81591C135.465 9.51857 136.417 10.5159 137.097 11.8079C137.777 13.0999 138.117 14.6072 138.117 16.3299V17.7239H125.503C125.549 19.0386 126.013 20.0926 126.897 20.8859C127.781 21.6792 128.869 22.0759 130.161 22.0759C131.431 22.0759 132.371 21.8039 132.983 21.2599C133.595 20.6932 134.06 20.0586 134.377 19.3559L137.607 21.0219C137.29 21.6339 136.825 22.2912 136.213 22.9939C135.624 23.6739 134.831 24.2632 133.833 24.7619C132.836 25.2379 131.578 25.4759 130.059 25.4759ZM125.537 14.7659H134.139C134.049 13.6552 133.618 12.7712 132.847 12.1139C132.099 11.4566 131.125 11.1279 129.923 11.1279C128.677 11.1279 127.679 11.4566 126.931 12.1139C126.183 12.7712 125.719 13.6552 125.537 14.7659Z" fill="white"/>
<path d="M113.826 24.9999C112.738 24.9999 111.865 24.6825 111.208 24.0479C110.573 23.3905 110.256 22.5065 110.256 21.3959V11.4339H105.87V8.20385H110.256V2.79785H114.166V8.20385H118.994V11.4339H114.166V20.7499C114.166 21.4299 114.483 21.7699 115.118 21.7699H118.484V24.9999H113.826Z" fill="white"/>
<path d="M93.2546 18.0639V14.5619H103.319V18.0639H93.2546Z" fill="white"/>
<path d="M81.2507 25.4759C79.5734 25.4759 78.0887 25.1246 76.7967 24.4219C75.5274 23.6966 74.5301 22.6879 73.8047 21.3959C73.1021 20.0812 72.7507 18.5512 72.7507 16.8059V16.3979C72.7507 14.6299 73.1021 13.0999 73.8047 11.8079C74.5074 10.5159 75.4934 9.51857 76.7627 8.81591C78.0321 8.09057 79.4941 7.72791 81.1487 7.72791C82.7807 7.72791 84.2087 8.09057 85.4327 8.81591C86.6567 9.51857 87.6087 10.5159 88.2887 11.8079C88.9687 13.0999 89.3087 14.6072 89.3087 16.3299V17.7239H76.6947C76.7401 19.0386 77.2047 20.0926 78.0887 20.8859C78.9727 21.6792 80.0607 22.0759 81.3527 22.0759C82.6221 22.0759 83.5627 21.8039 84.1747 21.2599C84.7867 20.6932 85.2514 20.0586 85.5687 19.3559L88.7987 21.0219C88.4814 21.6339 88.0167 22.2912 87.4047 22.9939C86.8154 23.6739 86.0221 24.2632 85.0247 24.7619C84.0274 25.2379 82.7694 25.4759 81.2507 25.4759ZM76.7287 14.7659H85.3307C85.2401 13.6552 84.8094 12.7712 84.0387 12.1139C83.2907 11.4566 82.3161 11.1279 81.1147 11.1279C79.8681 11.1279 78.8707 11.4566 78.1227 12.1139C77.3747 12.7712 76.9101 13.6552 76.7287 14.7659Z" fill="white"/>
<path d="M65.0173 24.9999C63.9293 24.9999 63.0566 24.6825 62.3993 24.0479C61.7646 23.3905 61.4473 22.5065 61.4473 21.3959V11.4339H57.0613V8.20385H61.4473V2.79785H65.3573V8.20385H70.1853V11.4339H65.3573V20.7499C65.3573 21.4299 65.6746 21.7699 66.3093 21.7699H69.6753V24.9999H65.0173Z" fill="white"/>
<path d="M49.76 24.9999V8.20391H53.67V24.9999H49.76ZM51.698 6.06191C50.9953 6.06191 50.3833 5.83525 49.862 5.38191C49.3633 4.90591 49.114 4.28258 49.114 3.51191C49.114 2.74125 49.3633 2.12925 49.862 1.67591C50.3833 1.19991 50.9953 0.961914 51.698 0.961914C52.446 0.961914 53.058 1.19991 53.534 1.67591C54.0327 2.12925 54.282 2.74125 54.282 3.51191C54.282 4.28258 54.0327 4.90591 53.534 5.38191C53.058 5.83525 52.446 6.06191 51.698 6.06191Z" fill="white"/>
<path d="M40.8948 24.9998V1.19983H44.8048V24.9998H40.8948Z" fill="white"/>
</svg>
